<mxfile host="Electron" agent="Mozilla/5.0 (Windows NT 10.0; Win64; x64) AppleWebKit/537.36 (KHTML, like Gecko) draw.io/26.0.4 Chrome/128.0.6613.186 Electron/32.2.5 Safari/537.36" version="26.0.4">
  <diagram name="Page-1" id="e7e014a7-5840-1c2e-5031-d8a46d1fe8dd">
    <mxGraphModel dx="692" dy="606" grid="1" gridSize="10" guides="1" tooltips="1" connect="1" arrows="1" fold="1" page="1" pageScale="1" pageWidth="1169" pageHeight="826" background="none" math="0" shadow="0">
      <root>
        <mxCell id="0" />
        <mxCell id="1" parent="0" />
        <mxCell id="2" value="User" style="swimlane;whiteSpace=wrap" parent="1" vertex="1">
          <mxGeometry x="130" y="152" width="280" height="570" as="geometry" />
        </mxCell>
        <mxCell id="5" value="" style="ellipse;shape=startState;fillColor=#000000;strokeColor=#ff0000;" parent="2" vertex="1">
          <mxGeometry x="100" y="40" width="30" height="30" as="geometry" />
        </mxCell>
        <mxCell id="6" value="" style="edgeStyle=elbowEdgeStyle;elbow=horizontal;verticalAlign=bottom;endArrow=open;endSize=8;strokeColor=#FF0000;endFill=1;rounded=0" parent="2" source="5" edge="1">
          <mxGeometry x="100" y="40" as="geometry">
            <mxPoint x="115.5" y="110" as="targetPoint" />
          </mxGeometry>
        </mxCell>
        <mxCell id="jl0OTtP8q7UKj0Rzs5JK-41" value="Chọn chức năng" style="rounded=1;whiteSpace=wrap;html=1;arcSize=40;fontColor=#000000;fillColor=#ffffc0;strokeColor=#ff0000;" parent="2" vertex="1">
          <mxGeometry x="55" y="112" width="120" height="40" as="geometry" />
        </mxCell>
        <mxCell id="jl0OTtP8q7UKj0Rzs5JK-42" value="" style="edgeStyle=orthogonalEdgeStyle;html=1;verticalAlign=bottom;endArrow=open;endSize=8;strokeColor=#ff0000;rounded=0;" parent="2" source="jl0OTtP8q7UKj0Rzs5JK-41" target="jl0OTtP8q7UKj0Rzs5JK-43" edge="1">
          <mxGeometry relative="1" as="geometry">
            <mxPoint x="185.5" y="232" as="targetPoint" />
          </mxGeometry>
        </mxCell>
        <mxCell id="jl0OTtP8q7UKj0Rzs5JK-43" value="Đăng nhập" style="rounded=1;whiteSpace=wrap;html=1;arcSize=40;fontColor=#000000;fillColor=#ffffc0;strokeColor=#ff0000;" parent="2" vertex="1">
          <mxGeometry x="55.5" y="202" width="120" height="40" as="geometry" />
        </mxCell>
        <mxCell id="jl0OTtP8q7UKj0Rzs5JK-56" value="Xem lich sử&amp;nbsp;&lt;div&gt;đơn hàng&lt;/div&gt;" style="rounded=1;whiteSpace=wrap;html=1;arcSize=40;fontColor=#000000;fillColor=#ffffc0;strokeColor=#ff0000;" parent="2" vertex="1">
          <mxGeometry x="55" y="288" width="120" height="40" as="geometry" />
        </mxCell>
        <mxCell id="jl0OTtP8q7UKj0Rzs5JK-57" value="" style="edgeStyle=orthogonalEdgeStyle;html=1;verticalAlign=bottom;endArrow=open;endSize=8;strokeColor=#ff0000;rounded=0;" parent="2" source="jl0OTtP8q7UKj0Rzs5JK-56" target="jl0OTtP8q7UKj0Rzs5JK-60" edge="1">
          <mxGeometry relative="1" as="geometry">
            <mxPoint x="115" y="388" as="targetPoint" />
          </mxGeometry>
        </mxCell>
        <mxCell id="jl0OTtP8q7UKj0Rzs5JK-60" value="" style="ellipse;html=1;shape=endState;fillColor=#000000;strokeColor=#ff0000;" parent="2" vertex="1">
          <mxGeometry x="100" y="388" width="30" height="30" as="geometry" />
        </mxCell>
        <mxCell id="3" value="System" style="swimlane;whiteSpace=wrap" parent="1" vertex="1">
          <mxGeometry x="410" y="152" width="280" height="570" as="geometry" />
        </mxCell>
        <mxCell id="jl0OTtP8q7UKj0Rzs5JK-45" value="HT kiểm tra đăng nhập" style="rounded=1;whiteSpace=wrap;html=1;arcSize=40;fontColor=#000000;fillColor=#ffffc0;strokeColor=#ff0000;" parent="3" vertex="1">
          <mxGeometry x="75.5" y="70" width="120" height="40" as="geometry" />
        </mxCell>
        <mxCell id="jl0OTtP8q7UKj0Rzs5JK-46" value="" style="edgeStyle=orthogonalEdgeStyle;html=1;verticalAlign=bottom;endArrow=open;endSize=8;strokeColor=#ff0000;rounded=0;" parent="3" source="jl0OTtP8q7UKj0Rzs5JK-45" edge="1">
          <mxGeometry relative="1" as="geometry">
            <mxPoint x="135.5" y="170" as="targetPoint" />
          </mxGeometry>
        </mxCell>
        <mxCell id="jl0OTtP8q7UKj0Rzs5JK-50" value="" style="rhombus;whiteSpace=wrap;html=1;fontColor=#000000;fillColor=#ffffc0;strokeColor=#ff0000;" parent="3" vertex="1">
          <mxGeometry x="95.5" y="172" width="80" height="40" as="geometry" />
        </mxCell>
        <mxCell id="jl0OTtP8q7UKj0Rzs5JK-54" value="Hiển thị danh sách đơn hàng" style="rounded=1;whiteSpace=wrap;html=1;arcSize=40;fontColor=#000000;fillColor=#ffffc0;strokeColor=#ff0000;" parent="3" vertex="1">
          <mxGeometry x="76" y="248" width="120" height="40" as="geometry" />
        </mxCell>
        <mxCell id="jl0OTtP8q7UKj0Rzs5JK-58" value="Đơn hàng" style="html=1;whiteSpace=wrap;" parent="3" vertex="1">
          <mxGeometry x="81" y="348" width="110" height="50" as="geometry" />
        </mxCell>
        <mxCell id="jl0OTtP8q7UKj0Rzs5JK-59" style="edgeStyle=orthogonalEdgeStyle;rounded=0;orthogonalLoop=1;jettySize=auto;html=1;" parent="3" source="jl0OTtP8q7UKj0Rzs5JK-58" target="jl0OTtP8q7UKj0Rzs5JK-54" edge="1">
          <mxGeometry relative="1" as="geometry" />
        </mxCell>
        <mxCell id="jl0OTtP8q7UKj0Rzs5JK-52" value="yes" style="edgeStyle=orthogonalEdgeStyle;html=1;align=left;verticalAlign=top;endArrow=open;endSize=8;strokeColor=#ff0000;rounded=0;" parent="3" source="jl0OTtP8q7UKj0Rzs5JK-50" edge="1" target="jl0OTtP8q7UKj0Rzs5JK-54">
          <mxGeometry x="-1" relative="1" as="geometry">
            <mxPoint x="146" y="248" as="targetPoint" />
          </mxGeometry>
        </mxCell>
        <mxCell id="jl0OTtP8q7UKj0Rzs5JK-44" value="" style="edgeStyle=orthogonalEdgeStyle;html=1;verticalAlign=bottom;endArrow=open;endSize=8;strokeColor=#ff0000;rounded=0;" parent="1" source="jl0OTtP8q7UKj0Rzs5JK-43" target="jl0OTtP8q7UKj0Rzs5JK-45" edge="1">
          <mxGeometry relative="1" as="geometry">
            <mxPoint x="500" y="262" as="targetPoint" />
            <Array as="points">
              <mxPoint x="360" y="374" />
              <mxPoint x="360" y="242" />
            </Array>
          </mxGeometry>
        </mxCell>
        <mxCell id="jl0OTtP8q7UKj0Rzs5JK-51" value="no" style="edgeStyle=orthogonalEdgeStyle;html=1;align=left;verticalAlign=bottom;endArrow=open;endSize=8;strokeColor=#ff0000;rounded=0;" parent="1" source="jl0OTtP8q7UKj0Rzs5JK-50" target="jl0OTtP8q7UKj0Rzs5JK-43" edge="1">
          <mxGeometry x="-0.771" relative="1" as="geometry">
            <mxPoint x="670" y="322" as="targetPoint" />
            <Array as="points">
              <mxPoint x="290" y="322" />
            </Array>
            <mxPoint as="offset" />
          </mxGeometry>
        </mxCell>
        <mxCell id="jl0OTtP8q7UKj0Rzs5JK-55" value="" style="edgeStyle=orthogonalEdgeStyle;html=1;verticalAlign=bottom;endArrow=open;endSize=8;strokeColor=#ff0000;rounded=0;" parent="1" source="jl0OTtP8q7UKj0Rzs5JK-54" target="jl0OTtP8q7UKj0Rzs5JK-56" edge="1">
          <mxGeometry relative="1" as="geometry">
            <mxPoint x="556" y="500" as="targetPoint" />
          </mxGeometry>
        </mxCell>
      </root>
    </mxGraphModel>
  </diagram>
</mxfile>
